<svg width="252" height="252" viewBox="0 0 252 252" fill="none" xmlns="http://www.w3.org/2000/svg">
<rect width="252" height="252" rx="126" fill="#242E33"/>
<path d="M101 108.75H125.25V157.25H101C87.6071 157.25 76.75 146.393 76.75 133C76.75 119.607 87.6071 108.75 101 108.75Z" stroke="#A259FF" stroke-width="1.5"/>
<path d="M101 57.75H125.25V106.25H101C87.6071 106.25 76.75 95.3929 76.75 82C76.75 68.6071 87.6071 57.75 101 57.75Z" stroke="#F24E1E" stroke-width="1.5"/>
<path d="M152 57.75H127.75V106.25H152C165.393 106.25 176.25 95.3929 176.25 82C176.25 68.6071 165.393 57.75 152 57.75Z" stroke="#FF7262" stroke-width="1.5"/>
<path d="M101 159.75H125.25V184C125.25 197.393 114.393 208.25 101 208.25C87.6071 208.25 76.75 197.393 76.75 184C76.75 170.607 87.6071 159.75 101 159.75Z" stroke="#0ACF83" stroke-width="1.5"/>
<circle cx="152" cy="133" r="24.25" stroke="#1ABCFE" stroke-width="1.5"/>
<path d="M140.563 136.096C140.12 136.096 139.691 136.037 139.275 135.92C138.864 135.797 138.533 135.64 138.283 135.448L138.723 134.472C138.963 134.648 139.248 134.789 139.579 134.896C139.909 135.003 140.24 135.056 140.571 135.056C140.939 135.056 141.211 135.003 141.387 134.896C141.563 134.784 141.651 134.637 141.651 134.456C141.651 134.323 141.597 134.213 141.491 134.128C141.389 134.037 141.256 133.965 141.091 133.912C140.931 133.859 140.712 133.8 140.435 133.736C140.008 133.635 139.659 133.533 139.387 133.432C139.115 133.331 138.88 133.168 138.683 132.944C138.491 132.72 138.395 132.421 138.395 132.048C138.395 131.723 138.483 131.429 138.659 131.168C138.835 130.901 139.099 130.691 139.451 130.536C139.808 130.381 140.243 130.304 140.755 130.304C141.112 130.304 141.461 130.347 141.803 130.432C142.144 130.517 142.443 130.64 142.699 130.8L142.299 131.784C141.781 131.491 141.264 131.344 140.747 131.344C140.384 131.344 140.115 131.403 139.939 131.52C139.768 131.637 139.683 131.792 139.683 131.984C139.683 132.176 139.781 132.32 139.979 132.416C140.181 132.507 140.488 132.597 140.899 132.688C141.325 132.789 141.675 132.891 141.947 132.992C142.219 133.093 142.451 133.253 142.643 133.472C142.84 133.691 142.939 133.987 142.939 134.36C142.939 134.68 142.848 134.973 142.667 135.24C142.491 135.501 142.224 135.709 141.867 135.864C141.509 136.019 141.075 136.096 140.563 136.096ZM146.248 130.4C146.744 130.4 147.173 130.483 147.536 130.648C147.904 130.813 148.187 131.048 148.384 131.352C148.581 131.656 148.68 132.016 148.68 132.432C148.68 132.843 148.581 133.203 148.384 133.512C148.187 133.816 147.904 134.051 147.536 134.216C147.173 134.376 146.744 134.456 146.248 134.456H145.12V136H143.824V130.4H146.248ZM146.176 133.4C146.565 133.4 146.861 133.317 147.064 133.152C147.267 132.981 147.368 132.741 147.368 132.432C147.368 132.117 147.267 131.877 147.064 131.712C146.861 131.541 146.565 131.456 146.176 131.456H145.12V133.4H146.176ZM153.012 134.8H150.412L149.916 136H148.588L151.084 130.4H152.364L154.868 136H153.508L153.012 134.8ZM152.604 133.816L151.716 131.672L150.828 133.816H152.604ZM158.051 136.096C157.48 136.096 156.963 135.973 156.499 135.728C156.04 135.477 155.678 135.133 155.411 134.696C155.15 134.253 155.019 133.755 155.019 133.2C155.019 132.645 155.15 132.149 155.411 131.712C155.678 131.269 156.04 130.925 156.499 130.68C156.963 130.429 157.483 130.304 158.059 130.304C158.544 130.304 158.982 130.389 159.371 130.56C159.766 130.731 160.096 130.976 160.363 131.296L159.531 132.064C159.152 131.627 158.683 131.408 158.123 131.408C157.776 131.408 157.467 131.485 157.195 131.64C156.923 131.789 156.71 132 156.555 132.272C156.406 132.544 156.331 132.853 156.331 133.2C156.331 133.547 156.406 133.856 156.555 134.128C156.71 134.4 156.923 134.613 157.195 134.768C157.467 134.917 157.776 134.992 158.123 134.992C158.683 134.992 159.152 134.771 159.531 134.328L160.363 135.096C160.096 135.421 159.766 135.669 159.371 135.84C158.976 136.011 158.536 136.096 158.051 136.096ZM165.574 134.96V136H161.238V130.4H165.47V131.44H162.526V132.656H165.126V133.664H162.526V134.96H165.574Z" fill="white"/>
</svg>
